HIERARCHY
ROOT hip
{
	OFFSET 0.000000 0.000000 0.000000 
	CHANNELS 6 Xposition Yposition Zposition Xrotation Zrotation Yrotation
	JOINT abdomen
	{
		OFFSET 0.000000 3.402643 0.000000 
		CHANNELS 3 Xrotation Zrotation Yrotation
		JOINT chest
		{
			OFFSET 0.000000 8.438565 -0.680529 
			CHANNELS 3 Xrotation Zrotation Yrotation
			JOINT neck
			{
				OFFSET 0.000000 10.207942 -0.272212 
				CHANNELS 3 Xrotation Zrotation Yrotation
				JOINT head
				{
					OFFSET 0.000000 3.130431 0.000000 
					CHANNELS 3 Xrotation Zrotation Yrotation
					End Site
					{
						OFFSET 0.000000 3.130435 0.000000 
					}
				}
			}
			JOINT lCollar
			{
				OFFSET 3.470700 6.669187 -0.816635 
				CHANNELS 3 Yrotation Zrotation Xrotation
				JOINT lShldr
				{
					OFFSET 3.198488 0.000000 0.000000 
					CHANNELS 3 Zrotation Yrotation Xrotation
					JOINT lForeArm
					{
						OFFSET 10.139888 0.000000 0.000000 
						CHANNELS 3 Yrotation Zrotation Xrotation
						JOINT lHand
						{
							OFFSET 8.370511 0.000000 0.000000 
							CHANNELS 3 Zrotation Yrotation Xrotation
							End Site
							{
								OFFSET 4.083176 0.000000 0.000000 
							}
						}
					}
				}
			}
			JOINT rCollar
			{
				OFFSET -3.470700 6.669187 -0.816635 
				CHANNELS 3 Yrotation Zrotation Xrotation
				JOINT rShldr
				{
					OFFSET -3.198488 0.000000 0.000000 
					CHANNELS 3 Zrotation Yrotation Xrotation
					JOINT rForeArm
					{
						OFFSET -10.139888 0.000000 0.000000 
						CHANNELS 3 Yrotation Zrotation Xrotation
						JOINT rHand
						{
							OFFSET -8.370511 0.000000 0.000000 
							CHANNELS 3 Zrotation Yrotation Xrotation
							End Site
							{
								OFFSET -4.083176 0.000000 0.000000 
							}
						}
					}
				}
			}
		}
	}
	JOINT lThigh
	{
		OFFSET 5.308129 -1.633274 1.361059 
		CHANNELS 3 Xrotation Zrotation Yrotation
		JOINT lShin
		{
			OFFSET -2.041588 -20.007561 0.000000 
			CHANNELS 3 Xrotation Zrotation Yrotation
			JOINT lFoot
			{
				OFFSET 0.000000 -19.190928 -1.224953 
				CHANNELS 3 Xrotation Yrotation Zrotation
				End Site
				{
					OFFSET 0.000000 -2.449906 4.627600 
				}
			}
		}
	}
	JOINT rThigh
	{
		OFFSET -5.308129 -1.633274 1.361059 
		CHANNELS 3 Xrotation Zrotation Yrotation
		JOINT rShin
		{
			OFFSET 2.041588 -20.007561 0.000000 
			CHANNELS 3 Xrotation Zrotation Yrotation
			JOINT rFoot
			{
				OFFSET 0.000000 -19.190928 -1.224953 
				CHANNELS 3 Xrotation Yrotation Zrotation
				End Site
				{
					OFFSET 0.000000 -2.449906 4.627600 
				}
			}
		}
	}
}
MOTION
Frames: 6
Frame Time: 0.016667
0.241742 42.884804 1.152549 3.419810 1.881410 57.212299 -19.104401 1.748700 -2.093160 11.588300 1.601290 -0.926408 -1.028830 16.786301 -17.361900 8.991740 12.483400 -7.086510 2.000000 -2.000000 0.000000 81.371803 -132.065002 27.698900 127.626999 -0.125416 0.125813 0.068918 -0.066690 -161.481995 -2.000000 2.000000 0.000000 1.953470 -0.689394 106.747002 -34.951500 0.326906 0.078327 179.893997 179.871994 -4.226320 -9.031793 11.865325 -8.649905 41.226917 3.234814 2.650280 3.804090 -8.277698 0.891238 -23.970482 -10.343962 2.069159 45.352650 -2.538045 -3.043394 -7.472104 -5.594734 -2.776919 
0.078275 42.770260 1.258678 3.381280 2.144700 56.591801 -19.168699 1.859990 -1.462640 11.718300 0.550031 -0.515208 -0.317252 15.544100 -17.195101 8.873520 12.086700 -7.281550 2.000000 -2.000000 0.000000 81.565102 -131.994995 26.556499 127.764000 -0.125139 0.125599 0.069066 -0.067013 -161.608994 -2.000000 2.000000 0.000000 -8.358000 7.786960 107.047997 -34.238602 0.327872 0.076926 179.904007 179.891998 0.646706 -8.637582 12.133788 -7.649240 41.414936 3.228265 2.684533 3.833125 -8.209624 0.968209 -23.631422 -10.207409 2.676228 45.085526 -2.584303 -3.037252 -8.356647 -4.723689 -2.692081 
-0.115906 42.583267 1.385050 3.509110 2.466080 56.342899 -19.392700 1.602870 -0.563915 11.491700 -1.321190 0.044699 0.229398 14.815200 -17.538900 8.887820 11.804100 -7.623180 2.000000 -2.000000 0.000000 80.728401 -132.145004 28.196800 127.666000 -0.125337 0.125751 0.068512 -0.065793 -161.130997 -2.000000 2.000000 0.000000 -15.626900 14.484400 109.426003 -34.756199 0.327173 0.077944 179.908997 179.897995 3.400600 -8.514163 12.308366 -7.056507 41.609921 3.235630 2.675104 3.919907 -8.679189 1.081860 -23.353115 -10.490092 2.294183 44.907738 -2.598775 -3.017359 -9.866638 -3.945548 -2.676891 
-0.310087 42.396145 1.511420 3.637120 2.787350 56.085602 -19.632700 1.356260 0.335300 11.255100 -3.180370 0.618009 0.782661 14.084900 -17.892599 8.912160 11.521400 -7.955270 2.000000 -2.000000 0.000000 79.901703 -132.313995 29.837099 127.558998 -0.125554 0.125919 0.067967 -0.064569 -160.651993 -2.000000 2.000000 0.000000 -22.877199 21.407000 110.977997 -35.264000 0.326478 0.078937 179.912994 179.904007 6.154510 -8.385718 12.483344 -6.463940 41.817829 3.217616 2.695864 3.952490 -9.168625 1.205103 -23.024122 -10.772936 1.898288 44.710033 -2.621142 -3.000733 -11.375758 -3.171356 -2.641724 
-0.583350 42.236435 1.717223 4.146620 3.077870 56.512299 -19.899200 1.338170 1.260480 10.950100 -4.236840 1.155360 0.541440 13.686400 -18.981300 8.818400 11.308900 -8.517750 2.000000 -2.000000 0.000000 77.566101 -132.740997 33.471600 127.529999 -0.125614 0.125965 0.066793 -0.061829 -159.587997 -2.000000 2.000000 0.000000 -26.986500 27.491100 110.750000 -36.328499 0.324992 0.080997 -0.092965 0.101478 -171.785004 -8.728699 12.365403 -6.739408 41.827595 3.211939 2.683795 4.324818 -9.765693 1.370821 -23.453381 -11.214955 1.767939 45.487579 -2.573653 -3.044950 -12.242544 -2.931061 -2.640289 
-0.856612 42.076710 1.923016 4.656540 3.377510 56.945000 -20.170700 1.339350 2.181870 10.640900 -5.291320 1.704500 0.301951 13.289000 -20.067101 8.734980 11.106000 -9.069060 2.000000 -2.000000 0.000000 75.299599 -133.276001 37.037701 127.500000 -0.125673 0.126010 0.065670 -0.059068 -158.522995 -2.000000 2.000000 0.000000 -31.389299 33.536701 109.983002 -37.393002 0.323468 0.083029 -0.089767 0.096708 -169.733994 -9.064569 12.243638 -7.025191 41.837723 3.212735 2.693717 4.697824 -10.402504 1.528204 -23.879778 -11.662638 1.652159 46.285236 -2.517012 -3.094445 -13.149172 -2.674577 -2.606173 
